<mxfile host="app.diagrams.net" modified="2023-12-14T17:34:20.985Z" agent="Mozilla/5.0 (X11; Linux x86_64; rv:109.0) Gecko/20100101 Firefox/114.0" etag="TGKKQkrMblJ0z7hhLNEv" version="22.1.9" type="device">
  <diagram name="Página-1" id="ZeJ0oP0n7bXpdAvOgthH">
    <mxGraphModel dx="1912" dy="1119" grid="1" gridSize="10" guides="1" tooltips="1" connect="1" arrows="1" fold="1" page="1" pageScale="1" pageWidth="1169" pageHeight="827" background="#c8e5f3" math="0" shadow="0">
      <root>
        <mxCell id="0" />
        <mxCell id="1" parent="0" />
        <mxCell id="8nNWhRYVGrmxHpN4UM2Z-1" value="&lt;font style=&quot;font-size: 25px;&quot;&gt;&lt;b&gt;&lt;i&gt;Diagrama 0: Gestionar Videoclub&lt;/i&gt;&lt;/b&gt;&lt;i&gt;&lt;br&gt;&lt;/i&gt;&lt;/font&gt;" style="rounded=1;whiteSpace=wrap;html=1;" parent="1" vertex="1">
          <mxGeometry x="180" y="100" width="420" height="40" as="geometry" />
        </mxCell>
        <mxCell id="Q9-axw0JJrMlVf5uTafr-31" style="edgeStyle=orthogonalEdgeStyle;rounded=0;orthogonalLoop=1;jettySize=auto;html=1;exitX=0.5;exitY=0;exitDx=0;exitDy=0;entryX=0;entryY=0.5;entryDx=0;entryDy=0;" parent="1" source="Q9-axw0JJrMlVf5uTafr-1" target="Q9-axw0JJrMlVf5uTafr-3" edge="1">
          <mxGeometry relative="1" as="geometry" />
        </mxCell>
        <mxCell id="Q9-axw0JJrMlVf5uTafr-53" style="edgeStyle=orthogonalEdgeStyle;rounded=0;orthogonalLoop=1;jettySize=auto;html=1;exitX=1;exitY=0.5;exitDx=0;exitDy=0;entryX=0;entryY=0.5;entryDx=0;entryDy=0;" parent="1" source="Q9-axw0JJrMlVf5uTafr-1" target="Q9-axw0JJrMlVf5uTafr-24" edge="1">
          <mxGeometry relative="1" as="geometry" />
        </mxCell>
        <mxCell id="Q9-axw0JJrMlVf5uTafr-1" value="Cliente" style="rounded=1;whiteSpace=wrap;html=1;" parent="1" vertex="1">
          <mxGeometry x="40" y="400" width="120" height="60" as="geometry" />
        </mxCell>
        <mxCell id="Q9-axw0JJrMlVf5uTafr-34" style="edgeStyle=orthogonalEdgeStyle;rounded=0;orthogonalLoop=1;jettySize=auto;html=1;exitX=1;exitY=0.5;exitDx=0;exitDy=0;entryX=0.5;entryY=0;entryDx=0;entryDy=0;" parent="1" source="Q9-axw0JJrMlVf5uTafr-3" target="Q9-axw0JJrMlVf5uTafr-7" edge="1">
          <mxGeometry relative="1" as="geometry" />
        </mxCell>
        <mxCell id="ex_FeaIhfi1P9jG4CEpl-3" style="edgeStyle=orthogonalEdgeStyle;rounded=0;orthogonalLoop=1;jettySize=auto;html=1;exitX=1;exitY=0;exitDx=0;exitDy=0;entryX=0.75;entryY=0;entryDx=0;entryDy=0;startArrow=classic;startFill=1;" parent="1" source="Q9-axw0JJrMlVf5uTafr-3" target="Q9-axw0JJrMlVf5uTafr-7" edge="1">
          <mxGeometry relative="1" as="geometry" />
        </mxCell>
        <mxCell id="Q9-axw0JJrMlVf5uTafr-3" value="Comprar bonos" style="ellipse;whiteSpace=wrap;html=1;aspect=fixed;" parent="1" vertex="1">
          <mxGeometry x="267.5" y="210" width="120" height="120" as="geometry" />
        </mxCell>
        <mxCell id="Q9-axw0JJrMlVf5uTafr-5" value="&lt;font style=&quot;font-size: 10px;&quot;&gt;Señalar ejemplares&lt;/font&gt;" style="text;html=1;strokeColor=none;fillColor=none;align=center;verticalAlign=middle;whiteSpace=wrap;rounded=0;" parent="1" vertex="1">
          <mxGeometry x="175" y="399" width="60" height="30" as="geometry" />
        </mxCell>
        <mxCell id="Q9-axw0JJrMlVf5uTafr-6" value="&lt;div&gt;1&lt;/div&gt;" style="text;html=1;strokeColor=none;fillColor=none;align=center;verticalAlign=middle;whiteSpace=wrap;rounded=0;" parent="1" vertex="1">
          <mxGeometry x="315" y="380" width="25" height="10" as="geometry" />
        </mxCell>
        <mxCell id="Q9-axw0JJrMlVf5uTafr-28" style="edgeStyle=orthogonalEdgeStyle;rounded=0;orthogonalLoop=1;jettySize=auto;html=1;exitX=0.25;exitY=0;exitDx=0;exitDy=0;entryX=1;entryY=0;entryDx=0;entryDy=0;startArrow=classic;startFill=1;" parent="1" source="Q9-axw0JJrMlVf5uTafr-7" target="Q9-axw0JJrMlVf5uTafr-24" edge="1">
          <mxGeometry relative="1" as="geometry">
            <Array as="points">
              <mxPoint x="600" y="388" />
              <mxPoint x="510" y="388" />
            </Array>
          </mxGeometry>
        </mxCell>
        <mxCell id="Q9-axw0JJrMlVf5uTafr-7" value="Credito cliente" style="shape=partialRectangle;whiteSpace=wrap;html=1;left=0;right=0;fillColor=none;" parent="1" vertex="1">
          <mxGeometry x="560" y="414" width="160" height="40" as="geometry" />
        </mxCell>
        <mxCell id="Q9-axw0JJrMlVf5uTafr-16" style="edgeStyle=orthogonalEdgeStyle;rounded=0;orthogonalLoop=1;jettySize=auto;html=1;exitX=0;exitY=0;exitDx=0;exitDy=0;entryX=0.5;entryY=1;entryDx=0;entryDy=0;startArrow=classic;startFill=1;endArrow=none;endFill=0;" parent="1" source="Q9-axw0JJrMlVf5uTafr-11" target="Q9-axw0JJrMlVf5uTafr-1" edge="1">
          <mxGeometry relative="1" as="geometry" />
        </mxCell>
        <mxCell id="Q9-axw0JJrMlVf5uTafr-18" style="edgeStyle=orthogonalEdgeStyle;rounded=0;orthogonalLoop=1;jettySize=auto;html=1;exitX=0;exitY=1;exitDx=0;exitDy=0;entryX=0.25;entryY=1;entryDx=0;entryDy=0;" parent="1" source="Q9-axw0JJrMlVf5uTafr-11" target="Q9-axw0JJrMlVf5uTafr-1" edge="1">
          <mxGeometry relative="1" as="geometry" />
        </mxCell>
        <mxCell id="Q9-axw0JJrMlVf5uTafr-21" style="rounded=0;orthogonalLoop=1;jettySize=auto;html=1;exitX=1;exitY=0.5;exitDx=0;exitDy=0;entryX=0.25;entryY=0;entryDx=0;entryDy=0;edgeStyle=orthogonalEdgeStyle;startArrow=classic;startFill=1;" parent="1" source="Q9-axw0JJrMlVf5uTafr-11" target="Q9-axw0JJrMlVf5uTafr-20" edge="1">
          <mxGeometry relative="1" as="geometry" />
        </mxCell>
        <mxCell id="Q9-axw0JJrMlVf5uTafr-57" style="edgeStyle=orthogonalEdgeStyle;rounded=0;orthogonalLoop=1;jettySize=auto;html=1;exitX=1;exitY=0;exitDx=0;exitDy=0;entryX=0.5;entryY=1;entryDx=0;entryDy=0;" parent="1" source="Q9-axw0JJrMlVf5uTafr-11" target="Q9-axw0JJrMlVf5uTafr-7" edge="1">
          <mxGeometry relative="1" as="geometry">
            <Array as="points">
              <mxPoint x="370" y="520" />
              <mxPoint x="640" y="520" />
            </Array>
          </mxGeometry>
        </mxCell>
        <mxCell id="Q9-axw0JJrMlVf5uTafr-11" value="&lt;div&gt;Gestionar&amp;nbsp;&lt;/div&gt;&lt;div&gt;devoluciones&lt;/div&gt;" style="ellipse;whiteSpace=wrap;html=1;aspect=fixed;" parent="1" vertex="1">
          <mxGeometry x="267.5" y="530" width="120" height="120" as="geometry" />
        </mxCell>
        <mxCell id="Q9-axw0JJrMlVf5uTafr-13" value="&lt;font style=&quot;font-size: 10px;&quot;&gt;Realizar devolución&lt;/font&gt;" style="text;html=1;strokeColor=none;fillColor=none;align=center;verticalAlign=middle;whiteSpace=wrap;rounded=0;" parent="1" vertex="1">
          <mxGeometry x="147.5" y="550" width="60" height="30" as="geometry" />
        </mxCell>
        <mxCell id="Q9-axw0JJrMlVf5uTafr-14" value="3" style="text;html=1;strokeColor=none;fillColor=none;align=center;verticalAlign=middle;whiteSpace=wrap;rounded=0;" parent="1" vertex="1">
          <mxGeometry x="315" y="540" width="25" height="10" as="geometry" />
        </mxCell>
        <mxCell id="Q9-axw0JJrMlVf5uTafr-19" value="&lt;font style=&quot;font-size: 10px;&quot;&gt;Emitir sanción&lt;/font&gt;" style="text;html=1;strokeColor=none;fillColor=none;align=center;verticalAlign=middle;whiteSpace=wrap;rounded=0;" parent="1" vertex="1">
          <mxGeometry x="147.5" y="640" width="60" height="30" as="geometry" />
        </mxCell>
        <mxCell id="Q9-axw0JJrMlVf5uTafr-20" value="Stock de peliculas" style="shape=partialRectangle;whiteSpace=wrap;html=1;left=0;right=0;fillColor=none;" parent="1" vertex="1">
          <mxGeometry x="440" y="640" width="120" height="40" as="geometry" />
        </mxCell>
        <mxCell id="Q9-axw0JJrMlVf5uTafr-22" value="&lt;div&gt;Pedido&amp;nbsp;&lt;/div&gt;&lt;div&gt;proveedores&lt;/div&gt;" style="ellipse;whiteSpace=wrap;html=1;aspect=fixed;" parent="1" vertex="1">
          <mxGeometry x="600" y="530" width="120" height="120" as="geometry" />
        </mxCell>
        <mxCell id="Q9-axw0JJrMlVf5uTafr-36" style="edgeStyle=orthogonalEdgeStyle;rounded=0;orthogonalLoop=1;jettySize=auto;html=1;exitX=1;exitY=1;exitDx=0;exitDy=0;entryX=0;entryY=0.5;entryDx=0;entryDy=0;jumpStyle=arc;" parent="1" source="Q9-axw0JJrMlVf5uTafr-24" target="Q9-axw0JJrMlVf5uTafr-22" edge="1">
          <mxGeometry relative="1" as="geometry">
            <Array as="points">
              <mxPoint x="540" y="472" />
              <mxPoint x="540" y="590" />
            </Array>
          </mxGeometry>
        </mxCell>
        <mxCell id="Q9-axw0JJrMlVf5uTafr-51" style="edgeStyle=orthogonalEdgeStyle;rounded=0;orthogonalLoop=1;jettySize=auto;html=1;exitX=0.5;exitY=0;exitDx=0;exitDy=0;entryX=0.75;entryY=0;entryDx=0;entryDy=0;" parent="1" source="Q9-axw0JJrMlVf5uTafr-24" target="Q9-axw0JJrMlVf5uTafr-1" edge="1">
          <mxGeometry relative="1" as="geometry" />
        </mxCell>
        <mxCell id="Q9-axw0JJrMlVf5uTafr-52" style="edgeStyle=orthogonalEdgeStyle;rounded=0;orthogonalLoop=1;jettySize=auto;html=1;exitX=0.5;exitY=1;exitDx=0;exitDy=0;entryX=0.75;entryY=1;entryDx=0;entryDy=0;" parent="1" source="Q9-axw0JJrMlVf5uTafr-24" target="Q9-axw0JJrMlVf5uTafr-1" edge="1">
          <mxGeometry relative="1" as="geometry" />
        </mxCell>
        <mxCell id="Q9-axw0JJrMlVf5uTafr-59" style="edgeStyle=orthogonalEdgeStyle;rounded=0;orthogonalLoop=1;jettySize=auto;html=1;exitX=1;exitY=0.5;exitDx=0;exitDy=0;jumpStyle=arc;startArrow=classic;startFill=1;" parent="1" source="Q9-axw0JJrMlVf5uTafr-24" target="Q9-axw0JJrMlVf5uTafr-20" edge="1">
          <mxGeometry relative="1" as="geometry" />
        </mxCell>
        <mxCell id="Q9-axw0JJrMlVf5uTafr-24" value="Gestión alquiler" style="ellipse;whiteSpace=wrap;html=1;aspect=fixed;" parent="1" vertex="1">
          <mxGeometry x="267.5" y="370" width="120" height="120" as="geometry" />
        </mxCell>
        <mxCell id="Q9-axw0JJrMlVf5uTafr-35" value="&lt;font style=&quot;font-size: 10px;&quot;&gt;Actualizar credito&lt;/font&gt;" style="text;html=1;strokeColor=none;fillColor=none;align=center;verticalAlign=middle;whiteSpace=wrap;rounded=0;" parent="1" vertex="1">
          <mxGeometry x="470" y="270" width="60" height="30" as="geometry" />
        </mxCell>
        <mxCell id="Q9-axw0JJrMlVf5uTafr-40" value="&lt;font style=&quot;font-size: 10px;&quot;&gt;Comprobar&lt;/font&gt;" style="text;html=1;strokeColor=none;fillColor=none;align=center;verticalAlign=middle;whiteSpace=wrap;rounded=0;" parent="1" vertex="1">
          <mxGeometry x="470" y="360" width="60" height="30" as="geometry" />
        </mxCell>
        <mxCell id="Q9-axw0JJrMlVf5uTafr-43" value="&lt;div style=&quot;font-size: 11px;&quot;&gt;&lt;font style=&quot;font-size: 10px;&quot;&gt;Comprar bonos&lt;/font&gt;&lt;/div&gt;" style="text;html=1;align=center;verticalAlign=middle;resizable=0;points=[];autosize=1;strokeColor=none;fillColor=none;" parent="1" vertex="1">
          <mxGeometry x="175" y="320" width="90" height="30" as="geometry" />
        </mxCell>
        <mxCell id="Q9-axw0JJrMlVf5uTafr-44" value="1" style="text;html=1;strokeColor=none;fillColor=none;align=center;verticalAlign=middle;whiteSpace=wrap;rounded=0;" parent="1" vertex="1">
          <mxGeometry x="315" y="380" width="25" height="10" as="geometry" />
        </mxCell>
        <mxCell id="Q9-axw0JJrMlVf5uTafr-45" value="2" style="text;html=1;strokeColor=none;fillColor=none;align=center;verticalAlign=middle;whiteSpace=wrap;rounded=0;" parent="1" vertex="1">
          <mxGeometry x="315" y="220" width="25" height="10" as="geometry" />
        </mxCell>
        <mxCell id="Q9-axw0JJrMlVf5uTafr-48" value="&lt;font style=&quot;font-size: 10px;&quot;&gt;Actualizar&lt;/font&gt;" style="text;html=1;strokeColor=none;fillColor=none;align=center;verticalAlign=middle;whiteSpace=wrap;rounded=0;" parent="1" vertex="1">
          <mxGeometry x="410" y="570" width="60" height="30" as="geometry" />
        </mxCell>
        <mxCell id="Q9-axw0JJrMlVf5uTafr-49" value="&lt;font style=&quot;font-size: 10px;&quot;&gt;Pedir&lt;/font&gt;" style="text;html=1;strokeColor=none;fillColor=none;align=center;verticalAlign=middle;whiteSpace=wrap;rounded=0;" parent="1" vertex="1">
          <mxGeometry x="540" y="560" width="60" height="30" as="geometry" />
        </mxCell>
        <mxCell id="Q9-axw0JJrMlVf5uTafr-54" value="&lt;div&gt;&lt;font style=&quot;font-size: 10px;&quot;&gt;Entregar&amp;nbsp;&lt;/font&gt;&lt;/div&gt;&lt;div&gt;&lt;font style=&quot;font-size: 10px;&quot;&gt;pelicula&lt;/font&gt;&lt;/div&gt;&lt;div&gt;&lt;font style=&quot;font-size: 10px;&quot;&gt;(Comprobante&lt;/font&gt;)&lt;/div&gt;" style="text;html=1;align=center;verticalAlign=middle;resizable=0;points=[];autosize=1;strokeColor=none;fillColor=none;" parent="1" vertex="1">
          <mxGeometry x="170" y="460" width="90" height="60" as="geometry" />
        </mxCell>
        <mxCell id="Q9-axw0JJrMlVf5uTafr-55" value="4" style="text;html=1;strokeColor=none;fillColor=none;align=center;verticalAlign=middle;whiteSpace=wrap;rounded=0;" parent="1" vertex="1">
          <mxGeometry x="647.5" y="540" width="25" height="10" as="geometry" />
        </mxCell>
        <mxCell id="Q9-axw0JJrMlVf5uTafr-58" value="&lt;font style=&quot;font-size: 10px;&quot;&gt;Actualizar&lt;/font&gt;" style="text;html=1;strokeColor=none;fillColor=none;align=center;verticalAlign=middle;whiteSpace=wrap;rounded=0;" parent="1" vertex="1">
          <mxGeometry x="410" y="500" width="60" height="30" as="geometry" />
        </mxCell>
        <mxCell id="Q9-axw0JJrMlVf5uTafr-60" value="&lt;font style=&quot;font-size: 10px;&quot;&gt;Actualizar&lt;/font&gt;" style="text;html=1;strokeColor=none;fillColor=none;align=center;verticalAlign=middle;whiteSpace=wrap;rounded=0;" parent="1" vertex="1">
          <mxGeometry x="450" y="410" width="60" height="30" as="geometry" />
        </mxCell>
        <mxCell id="ex_FeaIhfi1P9jG4CEpl-2" value="&lt;font style=&quot;font-size: 10px;&quot;&gt;Solicitar bonos&lt;/font&gt;" style="text;html=1;align=center;verticalAlign=middle;resizable=0;points=[];autosize=1;strokeColor=none;fillColor=none;" parent="1" vertex="1">
          <mxGeometry x="135" y="248" width="90" height="30" as="geometry" />
        </mxCell>
        <mxCell id="ex_FeaIhfi1P9jG4CEpl-4" value="&lt;font style=&quot;font-size: 10px;&quot;&gt;Comprobar credito&lt;/font&gt;" style="text;html=1;align=center;verticalAlign=middle;resizable=0;points=[];autosize=1;strokeColor=none;fillColor=none;" parent="1" vertex="1">
          <mxGeometry x="450" y="200" width="110" height="30" as="geometry" />
        </mxCell>
      </root>
    </mxGraphModel>
  </diagram>
</mxfile>
